<?xml version="1.0" encoding="UTF-8" standalone="no"?><!DOCTYPE svg PUBLIC "-//W3C//DTD SVG 1.1//EN" "http://www.w3.org/Graphics/SVG/1.1/DTD/svg11.dtd"><svg width="100%" height="100%" viewBox="0 0 512 512" version="1.1" xmlns="http://www.w3.org/2000/svg" xmlns:xlink="http://www.w3.org/1999/xlink" xml:space="preserve" style="fill-rule:evenodd;clip-rule:evenodd;stroke-linejoin:round;stroke-miterlimit:1.41421;"><g id="Icon"><rect x="0" y="0" width="512" height="512" style="fill:#ecf0f1;"/><g><rect x="79.448" y="335.448" width="353.103" height="88.276" style="fill:#ff8700;"/><path d="M441.379,432.552l-370.758,0l0,-105.931l370.758,0l0,105.931Zm-353.103,-17.655l335.448,0l0,-70.621l-335.448,0l0,70.621Z" style="fill:#ff8700;fill-rule:nonzero;"/></g><path d="M256,269.241c-2.26,0 -4.52,-0.865 -6.241,-2.586c-3.452,-3.452 -3.452,-9.031 0,-12.482l70.621,-70.621c3.451,-3.452 9.03,-3.452 12.482,0c3.451,3.452 3.451,9.031 0,12.482l-70.621,70.621c-1.721,1.721 -3.981,2.586 -6.241,2.586Z" style="fill:#bdc3c7;fill-rule:nonzero;"/><path d="M256,269.241c-2.26,0 -4.52,-0.865 -6.241,-2.586l-70.621,-70.621c-3.451,-3.451 -3.451,-9.03 0,-12.482c3.452,-3.452 9.031,-3.452 12.482,0l70.621,70.621c3.452,3.451 3.452,9.03 0,12.482c-1.721,1.721 -3.981,2.586 -6.241,2.586Z" style="fill:#bdc3c7;fill-rule:nonzero;"/><path d="M256,269.241c-4.882,0 -8.828,-3.946 -8.828,-8.827l0,-176.552c0,-4.882 3.946,-8.828 8.828,-8.828c4.882,0 8.828,3.946 8.828,8.828l0,176.552c0,4.881 -3.946,8.827 -8.828,8.827Z" style="fill:#bdc3c7;fill-rule:nonzero;"/></g></svg>