<?xml version="1.0" encoding="UTF-8" standalone="no"?><!DOCTYPE svg PUBLIC "-//W3C//DTD SVG 1.1//EN" "http://www.w3.org/Graphics/SVG/1.1/DTD/svg11.dtd"><svg width="100%" height="100%" viewBox="0 0 512 512" version="1.1" xmlns="http://www.w3.org/2000/svg" xmlns:xlink="http://www.w3.org/1999/xlink" xml:space="preserve" style="fill-rule:evenodd;clip-rule:evenodd;stroke-linejoin:round;stroke-miterlimit:1.41421;"><g id="Icon"><path d="M485.967,494.345l-106.381,0l0,-476.69l106.381,0c14.381,0 26.033,11.653 26.033,26.033l0,424.633c0,14.371 -11.652,26.024 -26.033,26.024Z" style="fill:#ff8700;fill-rule:nonzero;"/><path d="M414.897,97.103l-8.828,-8.827l0,-17.655l8.828,-8.828l17.655,0l8.827,8.828l0,17.655l-8.827,8.827l-17.655,0Z" style="fill:#fff;fill-rule:nonzero;"/><path d="M459.034,141.241l-8.827,-8.827l0,-17.655l8.827,-8.828l17.656,0l8.827,8.828l0,17.655l-8.827,8.827l-17.656,0Z" style="fill:#fff;fill-rule:nonzero;"/><path d="M414.897,185.379l-8.828,-8.827l0,-17.655l8.828,-8.828l17.655,0l8.827,8.828l0,17.655l-8.827,8.827l-17.655,0Z" style="fill:#fff;fill-rule:nonzero;"/><path d="M459.034,229.517l-8.827,-8.827l0,-17.656l8.827,-8.827l17.656,0l8.827,8.827l0,17.656l-8.827,8.827l-17.656,0Z" style="fill:#fff;fill-rule:nonzero;"/><path d="M414.897,273.655l-8.828,-8.827l0,-17.656l8.828,-8.827l17.655,0l8.827,8.827l0,17.656l-8.827,8.827l-17.655,0Z" style="fill:#fff;fill-rule:nonzero;"/><path d="M459.034,317.793l-8.827,-8.827l0,-17.656l8.827,-8.827l17.656,0l8.827,8.827l0,17.656l-8.827,8.827l-17.656,0Z" style="fill:#fff;fill-rule:nonzero;"/><path d="M414.897,361.931l-8.828,-8.828l0,-17.655l8.828,-8.827l17.655,0l8.827,8.827l0,17.655l-8.827,8.828l-17.655,0Z" style="fill:#fff;fill-rule:nonzero;"/><path d="M459.034,406.069l-8.827,-8.828l0,-17.655l8.827,-8.827l17.656,0l8.827,8.827l0,17.655l-8.827,8.828l-17.656,0Z" style="fill:#fff;fill-rule:nonzero;"/><path d="M414.897,450.207l-8.828,-8.828l0,-17.655l8.828,-8.827l17.655,0l8.827,8.827l0,17.655l-8.827,8.828l-17.655,0Z" style="fill:#fff;fill-rule:nonzero;"/><path d="M61.793,344.276l70.621,0l0,-35.31l-70.621,0l0,-17.656l-61.793,0l0,70.621l61.793,0l0,-17.655Z" style="fill:#ecf0f1;fill-rule:nonzero;"/><path d="M61.793,414.897l70.621,0l0,-35.311l-70.621,0l0,-17.655l-61.793,0l0,70.621l61.793,0l0,-17.655Z" style="fill:#d7dce0;fill-rule:nonzero;"/><path d="M132.414,450.207l-70.621,0l0,-17.655l-61.793,0l0,35.76c0,14.38 11.652,26.033 26.033,26.033l106.381,0l0,-44.138Z" style="fill:#ecf0f1;fill-rule:nonzero;"/><path d="M132.414,61.793l0,-44.138l-97.104,0l-9.277,0c-14.381,0 -26.033,11.653 -26.033,26.033l0,35.76l61.793,0l0,-17.655l70.621,0Z" style="fill:#ecf0f1;fill-rule:nonzero;"/><path d="M61.793,273.655l70.621,0l0,-35.31l-70.621,0l0,-17.655l-61.793,0l0,70.62l61.793,0l0,-17.655Z" style="fill:#d7dce0;fill-rule:nonzero;"/><path d="M61.793,203.034l70.621,0l0,-35.31l-70.621,0l0,-17.655l-61.793,0l0,70.621l61.793,0l0,-17.656Z" style="fill:#ecf0f1;fill-rule:nonzero;"/><path d="M61.793,132.414l70.621,0l0,-35.311l-70.621,0l0,-17.655l-61.793,0l0,70.621l61.793,0l0,-17.655Z" style="fill:#d7dce0;fill-rule:nonzero;"/><path d="M273.655,494.345l-17.655,17.655l-17.655,-17.655l0,-476.69l17.655,-17.655l17.655,17.655l0,476.69Z" style="fill:#2c3e50;fill-rule:nonzero;"/><path d="M308.966,494.345l-17.656,17.655l-17.655,-17.655l0,-476.69l17.655,-17.655l17.656,17.655l0,476.69Z" style="fill:#464f5d;fill-rule:nonzero;"/><path d="M344.276,494.345l-17.655,17.655l-17.655,-17.655l0,-476.69l17.655,-17.655l17.655,17.655l0,476.69Z" style="fill:#2c3e50;fill-rule:nonzero;"/><path d="M379.586,494.345l-17.655,17.655l-17.655,-17.655l0,-476.69l17.655,-17.655l17.655,17.655l0,476.69Z" style="fill:#464f5d;fill-rule:nonzero;"/><g><rect x="52.966" y="414.897" width="88.276" height="35.31" style="fill:#ff8700;"/><rect x="52.966" y="344.276" width="88.276" height="35.31" style="fill:#ff8700;"/><rect x="52.966" y="273.655" width="88.276" height="35.31" style="fill:#ff8700;"/><rect x="52.966" y="203.034" width="88.276" height="35.31" style="fill:#ff8700;"/><rect x="52.966" y="132.414" width="88.276" height="35.31" style="fill:#ff8700;"/><rect x="52.966" y="61.793" width="88.276" height="35.31" style="fill:#ff8700;"/></g><rect x="132.414" y="17.655" width="105.931" height="476.69" style="fill:#ff8700;"/><path d="M211.862,150.069l-52.965,44.138l0,-97.104l52.965,-52.965l0,105.931Z" style="fill:#fff;fill-rule:nonzero;"/><path d="M158.897,414.897l52.965,52.965l0,-97.103l-52.965,-44.138l0,88.276Z" style="fill:#fff;fill-rule:nonzero;"/><path d="M158.897,256l52.965,-52.966l0,114.759l-52.965,-61.793Z" style="fill:#fff;fill-rule:nonzero;"/></g></svg>