<?xml version="1.0" encoding="UTF-8" standalone="no"?><!DOCTYPE svg PUBLIC "-//W3C//DTD SVG 1.1//EN" "http://www.w3.org/Graphics/SVG/1.1/DTD/svg11.dtd"><svg width="100%" height="100%" viewBox="0 0 512 512" version="1.1" xmlns="http://www.w3.org/2000/svg" xmlns:xlink="http://www.w3.org/1999/xlink" xml:space="preserve" style="fill-rule:evenodd;clip-rule:evenodd;stroke-linejoin:round;stroke-miterlimit:1.41421;"><path d="M512,150.157l-512,0l0,-123.268c0,-9.975 8.086,-18.061 18.061,-18.061l475.878,0c9.975,0 18.061,8.086 18.061,18.061l0,123.268Z" style="fill:#b1b7bc;fill-rule:nonzero;"/><rect x="26.483" y="150.157" width="459.034" height="353.015" style="fill:#e7eced;"/><path d="M335.448,114.847l-158.896,0c-19.5,0 -35.311,-15.81 -35.311,-35.31c0,-19.501 15.811,-35.311 35.311,-35.311l158.896,0c19.5,0 35.311,15.81 35.311,35.311c0,19.5 -15.811,35.31 -35.311,35.31Z" style="fill:#424a60;fill-rule:nonzero;"/><rect x="26.483" y="459.034" width="459.034" height="44.138" style="fill:#ff8700;"/><rect x="132.414" y="220.69" width="247.172" height="123.586" style="fill:#fff;"/><g><path d="M167.724,273.655l52.966,0c4.881,0 8.827,-3.946 8.827,-8.827c0,-4.882 -3.946,-8.828 -8.827,-8.828l-52.966,0c-4.882,0 -8.827,3.946 -8.827,8.828c0,4.881 3.945,8.827 8.827,8.827Z" style="fill:#c7cac7;fill-rule:nonzero;"/><path d="M256,273.655c2.295,0 4.59,-0.971 6.268,-2.56c1.589,-1.677 2.56,-3.972 2.56,-6.267c0,-2.304 -0.971,-4.6 -2.56,-6.268c-3.355,-3.266 -9.269,-3.266 -12.536,0c-1.597,1.668 -2.56,3.964 -2.56,6.268c0,2.383 0.963,4.59 2.56,6.267c1.669,1.589 3.876,2.56 6.268,2.56Z" style="fill:#c7cac7;fill-rule:nonzero;"/><path d="M344.276,291.31l-141.242,0c-4.881,0 -8.827,3.946 -8.827,8.828c0,4.882 3.946,8.828 8.827,8.828l141.242,0c4.882,0 8.827,-3.946 8.827,-8.828c0,-4.882 -3.945,-8.828 -8.827,-8.828Z" style="fill:#c7cac7;fill-rule:nonzero;"/><path d="M161.457,293.87c-1.598,1.669 -2.56,3.964 -2.56,6.268c0,2.295 0.962,4.59 2.56,6.268c1.668,1.588 3.875,2.56 6.267,2.56c2.384,0 4.59,-0.972 6.268,-2.56c1.589,-1.678 2.56,-3.973 2.56,-6.268c0,-2.304 -0.971,-4.599 -2.56,-6.268c-3.266,-3.266 -9.181,-3.266 -12.535,0Z" style="fill:#c7cac7;fill-rule:nonzero;"/></g><rect x="26.483" y="150.069" width="459.034" height="44.138" style="fill:#d7d7e2;"/></svg>