<?xml version="1.0" encoding="UTF-8" standalone="no"?><!DOCTYPE svg PUBLIC "-//W3C//DTD SVG 1.1//EN" "http://www.w3.org/Graphics/SVG/1.1/DTD/svg11.dtd"><svg width="100%" height="100%" viewBox="0 0 512 512" version="1.1" xmlns="http://www.w3.org/2000/svg" xmlns:xlink="http://www.w3.org/1999/xlink" xml:space="preserve" xmlns:serif="http://www.serif.com/" style="fill-rule:evenodd;clip-rule:evenodd;stroke-linejoin:round;stroke-miterlimit:2;"><g id="Icon"><path d="M504.552,231.648l-203.334,235.278c-11.041,12.775 -30.349,14.181 -43.124,3.14l-169.612,-146.584c-12.775,-11.041 -14.181,-30.349 -3.14,-43.124l203.335,-235.277c11.047,-12.782 30.355,-14.188 43.13,-3.148l169.612,146.585c12.775,11.039 14.181,30.347 3.133,43.13Z" style="fill:#e5e9ea;fill-rule:nonzero;"/><path d="M504.552,231.648l-122.347,141.569l-215.877,-186.567l122.349,-141.569c11.047,-12.782 30.355,-14.188 43.13,-3.148l169.612,146.585c12.775,11.039 14.181,30.347 3.133,43.13Z" style="fill:#f49700;fill-rule:nonzero;"/><path d="M401.696,160.453l-98.887,294.824c-5.37,16.009 -22.7,24.634 -38.709,19.265l-212.54,-71.287c-16.009,-5.37 -24.634,-22.7 -19.265,-38.709l98.887,-294.824c5.373,-16.018 22.703,-24.644 38.712,-19.274l212.54,71.287c16.01,5.369 24.635,22.7 19.262,38.718Z" style="fill:#f7a831;fill-rule:nonzero;"/><g><path d="M401.696,160.453l-59.501,177.399l-270.513,-90.733l59.5,-177.399c5.373,-16.018 22.703,-24.644 38.712,-19.274l212.54,71.287c16.01,5.371 24.635,22.702 19.262,38.72Z" style="fill:#e5e9ea;fill-rule:nonzero;"/><path d="M285.325,132.953l0,310.967c0,16.885 -13.689,30.574 -30.574,30.574l-224.177,0c-16.885,-0.001 -30.574,-13.689 -30.574,-30.574l0,-310.967c0,-16.895 13.689,-30.583 30.574,-30.583l224.176,0c16.886,-0.001 30.575,13.688 30.575,30.583Z" style="fill:#e5e9ea;fill-rule:nonzero;"/></g><path d="M285.325,132.953l0,187.112l-285.325,0l0,-187.112c0,-16.895 13.689,-30.583 30.574,-30.583l224.176,0c16.886,-0.001 30.575,13.688 30.575,30.583Z" style="fill:#ff8700;fill-rule:nonzero;"/><g><path d="M222.085,373.054l-158.844,-0c-4.356,-0 -7.887,-3.531 -7.887,-7.887c-0,-4.356 3.531,-7.887 7.887,-7.887l158.843,-0c4.356,-0 7.887,3.531 7.887,7.887c0,4.356 -3.531,7.887 -7.886,7.887Z" style="fill:#515151;fill-rule:nonzero;"/><path d="M222.085,403.205l-158.844,0c-4.356,0 -7.887,-3.531 -7.887,-7.887c-0,-4.356 3.531,-7.887 7.887,-7.887l158.843,0c4.356,0 7.887,3.531 7.887,7.887c0.001,4.356 -3.531,7.887 -7.886,7.887Z" style="fill:#515151;fill-rule:nonzero;"/><path d="M222.085,433.356l-158.844,0c-4.356,0 -7.887,-3.531 -7.887,-7.887c-0,-4.356 3.531,-7.887 7.887,-7.887l158.843,0c4.356,0 7.887,3.531 7.887,7.887c0.001,4.356 -3.531,7.887 -7.886,7.887Z" style="fill:#515151;fill-rule:nonzero;"/></g><path d="M142.662,130.902l24.471,49.583l54.718,7.952l-39.594,38.595l9.347,54.497l-48.942,-25.73l-48.941,25.73l9.346,-54.497l-39.594,-38.595l54.719,-7.952l24.47,-49.583Z" style="fill:#fff;fill-rule:nonzero;"/></g></svg>