<?xml version="1.0" encoding="UTF-8" standalone="no"?><!DOCTYPE svg PUBLIC "-//W3C//DTD SVG 1.1//EN" "http://www.w3.org/Graphics/SVG/1.1/DTD/svg11.dtd"><svg width="100%" height="100%" viewBox="0 0 512 512" version="1.1" xmlns="http://www.w3.org/2000/svg" xmlns:xlink="http://www.w3.org/1999/xlink" xml:space="preserve" xmlns:serif="http://www.serif.com/" style="fill-rule:evenodd;clip-rule:evenodd;stroke-linejoin:round;stroke-miterlimit:1.41421;"><g id="Icon"><path d="M501.145,43.009c-0.329,-6.085 -5.428,-10.855 -11.513,-10.855l-467.428,0c-6.086,0 -11.184,4.77 -11.513,10.855l-10.527,179.932l511.836,0l-10.855,-179.932Z" style="fill:#e6e9ee;fill-rule:nonzero;"/><path d="M0,222.941l6.743,63.157c0.823,7.073 6.744,12.5 13.98,12.5l470.389,0c7.072,0 13.158,-5.427 13.98,-12.5l6.744,-63.157l-511.836,0Z" style="fill:#ced5e0;fill-rule:nonzero;"/><path d="M486.507,276.066l-461.178,0l-2.961,-30.592l467.099,0l-2.96,30.592Z" style="fill:#ff8700;fill-rule:nonzero;"/><g><rect x="78.946" y="81.825" width="353.943" height="15.789" style="fill:#ced5e0;"/><rect x="78.946" y="119.653" width="353.943" height="15.789" style="fill:#ced5e0;"/><rect x="78.946" y="157.317" width="353.943" height="15.789" style="fill:#ced5e0;"/></g><g><path d="M143.584,329.848c0,-0.987 0,-1.481 0,-1.481l-5.263,-0.657c0,0 -2.467,7.072 -8.06,16.94c-1.315,2.467 -3.124,4.934 -4.769,7.73c-1.974,2.632 -3.619,5.428 -5.921,8.059c-2.138,2.796 -4.276,5.428 -6.744,8.06c-2.302,2.631 -4.934,5.263 -7.401,7.73c-2.467,2.467 -5.263,4.769 -7.894,7.072c-2.632,2.138 -5.428,4.112 -8.059,6.085c-2.632,1.974 -5.428,3.454 -7.731,5.099c-2.302,1.645 -4.934,2.796 -7.236,4.112c-2.303,1.151 -4.112,2.467 -6.086,3.289c-1.809,0.823 -3.454,1.645 -4.934,2.138c-0.329,0.165 -0.658,0.329 -0.987,0.494l-15.131,-21.217l-12.171,72.367l72.367,12.171l-13.98,-19.572c0.494,-0.658 1.152,-1.316 1.974,-2.138c1.316,-1.48 2.96,-3.125 4.77,-5.263c1.809,-1.974 3.618,-4.441 5.756,-7.072c1.974,-2.632 4.276,-5.263 6.415,-8.553c2.138,-3.125 4.44,-6.414 6.414,-9.868c1.974,-3.618 4.112,-7.237 6.085,-11.02c1.81,-3.947 3.783,-7.565 5.428,-11.677c1.645,-3.947 3.289,-7.895 4.441,-11.842c1.315,-3.947 2.631,-7.73 3.454,-11.513c1.151,-3.783 1.809,-7.401 2.467,-10.855c0.658,-3.454 1.151,-6.744 1.48,-9.869c0.822,-6.085 0.987,-11.184 0.987,-14.637c0.329,-1.645 0.329,-3.125 0.329,-4.112Z" style="fill:#ff8700;fill-rule:nonzero;"/><path d="M368.252,329.848c0,-0.987 0,-1.481 0,-1.481l5.263,-0.657c0,0 2.467,7.072 8.059,16.94c1.316,2.467 3.125,4.934 4.77,7.73c1.973,2.632 3.618,5.428 5.921,8.059c2.138,2.796 4.276,5.428 6.743,8.06c2.303,2.631 4.934,5.263 7.401,7.73c2.467,2.467 5.263,4.769 7.895,7.072c2.631,2.138 5.427,4.112 8.059,6.085c2.632,1.974 5.428,3.454 7.73,5.099c2.303,1.645 4.934,2.796 7.237,4.112c2.303,1.151 4.112,2.467 6.085,3.289c1.81,0.823 3.454,1.645 4.935,2.138c0.328,0.165 0.657,0.329 0.986,0.494l15.132,-21.217l12.171,72.367l-72.368,12.171l13.98,-19.572c-0.493,-0.658 -1.151,-1.316 -1.973,-2.138c-1.316,-1.48 -2.961,-3.125 -4.77,-5.263c-1.809,-1.974 -3.619,-4.441 -5.757,-7.072c-1.973,-2.632 -4.276,-5.263 -6.414,-8.553c-2.138,-3.125 -4.441,-6.414 -6.414,-9.868c-1.974,-3.618 -4.112,-7.237 -6.086,-11.02c-1.809,-3.947 -3.783,-7.565 -5.427,-11.677c-1.645,-3.947 -3.29,-7.895 -4.441,-11.842c-1.316,-3.947 -2.632,-7.73 -3.454,-11.513c-1.151,-3.783 -1.809,-7.401 -2.467,-10.855c-0.658,-3.454 -1.151,-6.744 -1.48,-9.869c-0.823,-6.085 -0.987,-11.184 -0.987,-14.637c-0.329,-1.645 -0.329,-3.125 -0.329,-4.112Z" style="fill:#ff8700;fill-rule:nonzero;"/><path d="M261.345,328.861l-10.855,0l-21.381,97.696l-30.427,0l57.236,53.289l57.236,-53.289l-30.427,0l-21.382,-97.696Z" style="fill:#ff8700;fill-rule:nonzero;"/></g></g></svg>