<?xml version="1.0" encoding="UTF-8" standalone="no"?><!DOCTYPE svg PUBLIC "-//W3C//DTD SVG 1.1//EN" "http://www.w3.org/Graphics/SVG/1.1/DTD/svg11.dtd"><svg width="100%" height="100%" viewBox="0 0 512 512" version="1.1" xmlns="http://www.w3.org/2000/svg" xmlns:xlink="http://www.w3.org/1999/xlink" xml:space="preserve" style="fill-rule:evenodd;clip-rule:evenodd;stroke-linejoin:round;stroke-miterlimit:1.41421;"><g id="Icon"><rect x="0" y="0" width="512" height="512" style="fill:#ecf0f1;"/><rect x="0" y="0" width="512" height="105.931" style="fill:#546a79;"/><circle cx="52.966" cy="52.966" r="26.483" style="fill:#ed7161;"/><circle cx="132.414" cy="52.966" r="26.483" style="fill:#f0c419;"/><circle cx="211.862" cy="52.966" r="26.483" style="fill:#4fba6f;"/><rect x="44.138" y="150.069" width="423.724" height="317.793" style="fill:#ff8700;"/><g><path d="M264.828,256l79.448,0c4.873,0 8.827,-3.955 8.827,-8.828c0,-4.872 -3.954,-8.827 -8.827,-8.827l-79.448,0c-4.873,0 -8.828,3.955 -8.828,8.827c0,4.873 3.955,8.828 8.828,8.828Z" style="fill:#fff;fill-rule:nonzero;"/><path d="M423.724,326.621l-158.896,0c-4.873,0 -8.828,3.954 -8.828,8.827c0,4.873 3.955,8.828 8.828,8.828l158.896,0c4.873,0 8.828,-3.955 8.828,-8.828c0,-4.873 -3.955,-8.827 -8.828,-8.827Z" style="fill:#fff;fill-rule:nonzero;"/><path d="M264.828,300.138l158.896,0c4.873,0 8.828,-3.955 8.828,-8.828c0,-4.872 -3.955,-8.827 -8.828,-8.827l-158.896,0c-4.873,0 -8.828,3.955 -8.828,8.827c0,4.873 3.955,8.828 8.828,8.828Z" style="fill:#fff;fill-rule:nonzero;"/><path d="M423.724,370.759l-158.896,0c-4.873,0 -8.828,3.954 -8.828,8.827c0,4.873 3.955,8.828 8.828,8.828l158.896,0c4.873,0 8.828,-3.955 8.828,-8.828c0,-4.873 -3.955,-8.827 -8.828,-8.827Z" style="fill:#fff;fill-rule:nonzero;"/></g><rect x="79.448" y="238.345" width="158.897" height="150.069" style="fill:#fff;"/></g></svg>