<?xml version="1.0" encoding="UTF-8" standalone="no"?><!DOCTYPE svg PUBLIC "-//W3C//DTD SVG 1.1//EN" "http://www.w3.org/Graphics/SVG/1.1/DTD/svg11.dtd"><svg width="100%" height="100%" viewBox="0 0 512 512" version="1.1" xmlns="http://www.w3.org/2000/svg" xmlns:xlink="http://www.w3.org/1999/xlink" xml:space="preserve" xmlns:serif="http://www.serif.com/" style="fill-rule:evenodd;clip-rule:evenodd;stroke-linejoin:round;stroke-miterlimit:2;"><g id="Original"><rect x="16.248" y="109.741" width="479.503" height="402.258" style="fill:#e21b1b;"/><path d="M464.982,481.216l-417.953,0l0,-324.704l417.953,0l-0,324.704Zm-409.953,-8l401.952,0l0,-308.704l-401.952,0l0,308.704Z" style="fill:#f42222;fill-rule:nonzero;"/><rect x="16.248" y="41.323" width="479.503" height="92.42" style="fill:#ccc;"/><g><rect x="103.197" y="0" width="24" height="83.15" style="fill:#1a1718;"/><rect x="384.81" y="0" width="24" height="83.15" style="fill:#1a1718;"/></g><path d="M322.142,421.273l-66.136,-49.968l-66.136,49.968l25.264,-80.849l-65.88,-49.744l81.424,0l25.328,-81.024l25.328,81.024l81.416,0l-65.864,49.744l25.256,80.849Z" style="fill:#fff;fill-rule:nonzero;"/></g><g id="Icon"><rect x="16.248" y="109.741" width="479.503" height="402.258" style="fill:#ff8700;"/><path d="M464.982,481.216l-417.953,0l0,-324.704l417.953,0l-0,324.704Zm-409.953,-8l401.952,0l0,-308.704l-401.952,0l0,308.704Z" style="fill:#fff;fill-rule:nonzero;"/><rect x="16.248" y="41.323" width="479.503" height="92.42" style="fill:#f4f4f4;"/><g><rect x="103.197" y="0" width="24" height="83.15" style="fill:#515151;"/><rect x="384.81" y="0" width="24" height="83.15" style="fill:#515151;"/></g><path d="M322.142,421.273l-66.136,-49.968l-66.136,49.968l25.264,-80.849l-65.88,-49.744l81.424,0l25.328,-81.024l25.328,81.024l81.416,0l-65.864,49.744l25.256,80.849Z" style="fill:#fff;fill-rule:nonzero;"/></g></svg>