<svg class="nc-icon colored" xmlns="http://www.w3.org/2000/svg" xmlns:xlink="http://www.w3.org/1999/xlink" x="0px" y="0px" width="48px" height="48px" viewBox="0 0 48 48"><g>
<path fill="#B3B3B3" d="M20,27H5c-0.552,0-1-0.448-1-1V2c0-0.552,0.448-1,1-1h15c0.552,0,1,0.448,1,1v24C21,26.552,20.552,27,20,27z
	"></path>
<path fill="#8680D8" d="M20,47H5c-0.552,0-1-0.448-1-1V34c0-0.552,0.448-1,1-1h15c0.552,0,1,0.448,1,1v12C21,46.552,20.552,47,20,47
	z"></path>
<path fill="#8680D8" d="M43,15H28c-0.552,0-1-0.448-1-1V2c0-0.552,0.448-1,1-1h15c0.552,0,1,0.448,1,1v12C44,14.552,43.552,15,43,15
	z"></path>
<path fill="#B3B3B3" d="M43,47H28c-0.552,0-1-0.448-1-1V22c0-0.552,0.448-1,1-1h15c0.552,0,1,0.448,1,1v24
	C44,46.552,43.552,47,43,47z"></path>
</g></svg>