<?xml version="1.0" encoding="UTF-8" standalone="no"?><!DOCTYPE svg PUBLIC "-//W3C//DTD SVG 1.1//EN" "http://www.w3.org/Graphics/SVG/1.1/DTD/svg11.dtd"><svg width="100%" height="100%" viewBox="0 0 512 512" version="1.1" xmlns="http://www.w3.org/2000/svg" xmlns:xlink="http://www.w3.org/1999/xlink" xml:space="preserve" xmlns:serif="http://www.serif.com/" style="fill-rule:evenodd;clip-rule:evenodd;stroke-linejoin:round;stroke-miterlimit:2;"><g id="Original"><rect x="15.059" y="325.271" width="481.882" height="72.282" style="fill:#6dc180;"/><rect x="256" y="325.271" width="240.941" height="72.282" style="fill:#5ca15d;"/><rect x="15.059" y="204.8" width="409.6" height="72.282" style="fill:#98c8ed;"/><rect x="256" y="204.8" width="168.659" height="72.282" style="fill:#7ab9e8;"/><path d="M304.188,84.329l0,-84.329l-96.376,0l0,84.329l30.118,30.118l0,357.575c-3.737,4.245 -6.024,9.797 -6.024,15.884c0,13.285 10.808,24.094 24.094,24.094c13.286,0 24.094,-10.809 24.094,-24.094c0,-6.087 -2.287,-11.637 -6.024,-15.884l0,-357.575l30.118,-30.118Z" style="fill:#88888f;fill-rule:nonzero;"/><path d="M304.188,84.329l0,-84.329l-48.188,0l0,512c13.286,0 24.094,-10.809 24.094,-24.094c0,-6.087 -2.287,-11.637 -6.024,-15.884l0,-357.575l30.118,-30.118Z" style="fill:#56545a;fill-rule:nonzero;"/></g><g id="Icon"><rect x="15.059" y="325.271" width="481.882" height="72.282" style="fill:#ff8700;"/><rect x="256" y="325.271" width="240.941" height="72.282" style="fill:#ff8700;"/><rect x="15.059" y="204.8" width="409.6" height="72.282" style="fill:#ff8700;"/><rect x="256" y="204.8" width="168.659" height="72.282" style="fill:#ff8700;"/><path d="M304.188,84.329l0,-84.329l-96.376,0l0,84.329l30.118,30.118l0,357.575c-3.737,4.245 -6.024,9.797 -6.024,15.884c0,13.285 10.808,24.094 24.094,24.094c13.286,0 24.094,-10.809 24.094,-24.094c0,-6.087 -2.287,-11.637 -6.024,-15.884l0,-357.575l30.118,-30.118Z" style="fill:#8c8c8c;fill-rule:nonzero;"/><path d="M304.188,84.329l0,-84.329l-48.188,0l0,512c13.286,0 24.094,-10.809 24.094,-24.094c0,-6.087 -2.287,-11.637 -6.024,-15.884l0,-357.575l30.118,-30.118Z" style="fill:#515151;fill-rule:nonzero;"/></g></svg>