<?xml version="1.0" encoding="UTF-8" standalone="no"?><!DOCTYPE svg PUBLIC "-//W3C//DTD SVG 1.1//EN" "http://www.w3.org/Graphics/SVG/1.1/DTD/svg11.dtd"><svg width="100%" height="100%" viewBox="0 0 512 512" version="1.1" xmlns="http://www.w3.org/2000/svg" xmlns:xlink="http://www.w3.org/1999/xlink" xml:space="preserve" style="fill-rule:evenodd;clip-rule:evenodd;stroke-linejoin:round;stroke-miterlimit:1.41421;"><g id="Icon"><g><path d="M512,512l-17.356,0c-4.799,0 -8.678,-3.879 -8.678,-8.678c0,-4.799 3.879,-8.678 8.678,-8.678c0,-4.799 3.879,-8.678 8.678,-8.678c4.799,0 8.678,3.879 8.678,8.678l0,17.356Z" style="fill:#ff8700;fill-rule:nonzero;"/><path d="M457.936,512l-18.354,0c-4.799,0 -8.678,-3.879 -8.678,-8.678c0,-4.799 3.879,-8.678 8.678,-8.678l18.354,0c4.799,0 8.678,3.879 8.678,8.678c0,4.799 -3.887,8.678 -8.678,8.678Zm-55.07,0l-18.363,0c-4.79,0 -8.678,-3.879 -8.678,-8.678c0,-4.799 3.888,-8.678 8.678,-8.678l18.363,0c4.799,0 8.678,3.879 8.678,8.678c0,4.799 -3.879,8.678 -8.678,8.678Z" style="fill:#ff8700;fill-rule:nonzero;"/><path d="M347.787,512l-18.354,0c-4.79,0 -8.678,-3.879 -8.678,-8.678c0,-4.799 3.888,-8.678 8.678,-8.678l18.354,0c4.79,0 8.678,3.879 8.678,8.678c0,4.799 -3.888,8.678 -8.678,8.678Zm-55.071,0l-18.353,0c-4.791,0 -8.678,-3.879 -8.678,-8.678c0,-4.799 3.887,-8.678 8.678,-8.678l18.353,0c4.791,0 8.678,3.879 8.678,8.678c0,4.799 -3.887,8.678 -8.678,8.678Zm-55.07,0l-18.354,0c-4.79,0 -8.678,-3.879 -8.678,-8.678c0,-4.799 3.888,-8.678 8.678,-8.678l18.354,0c4.79,0 8.678,3.879 8.678,8.678c0,4.799 -3.888,8.678 -8.678,8.678Zm-55.07,0l-18.354,0c-4.79,0 -8.678,-3.879 -8.678,-8.678c0,-4.799 3.888,-8.678 8.678,-8.678l18.354,0c4.79,0 8.678,3.879 8.678,8.678c0,4.799 -3.888,8.678 -8.678,8.678Zm-55.079,0l-18.354,0c-4.79,0 -8.678,-3.879 -8.678,-8.678c0,-4.799 3.888,-8.678 8.678,-8.678l18.354,0c4.79,0 8.678,3.879 8.678,8.678c0,4.799 -3.879,8.678 -8.678,8.678Zm-55.071,0l-18.354,0c-4.79,0 -8.678,-3.879 -8.678,-8.678c0,-4.799 3.888,-8.678 8.678,-8.678l18.354,0c4.791,0 8.678,3.879 8.678,8.678c0,4.799 -3.887,8.678 -8.678,8.678Z" style="fill:#ff8700;fill-rule:nonzero;"/><path d="M17.356,512l-17.356,0l0,-17.356c0,-4.799 3.888,-8.678 8.678,-8.678c4.79,0 8.678,3.879 8.678,8.678c4.79,0 8.678,3.879 8.678,8.678c0,4.799 -3.888,8.678 -8.678,8.678Z" style="fill:#ff8700;fill-rule:nonzero;"/><path d="M8.678,466.614c-4.79,0 -8.678,-3.879 -8.678,-8.678l0,-18.354c0,-4.799 3.888,-8.678 8.678,-8.678c4.79,0 8.678,3.879 8.678,8.678l0,18.354c0,4.791 -3.888,8.678 -8.678,8.678Z" style="fill:#ff8700;fill-rule:nonzero;"/><path d="M457.928,17.356l-18.354,0c-4.799,0 -8.678,-3.879 -8.678,-8.678c0,-4.799 3.879,-8.678 8.678,-8.678l18.354,0c4.799,0 8.678,3.879 8.678,8.678c0,4.799 -3.888,8.678 -8.678,8.678Z" style="fill:#ff8700;fill-rule:nonzero;"/><path d="M503.322,26.034c-4.799,0 -8.678,-3.879 -8.678,-8.678c-4.799,0 -8.678,-3.879 -8.678,-8.678c0,-4.799 3.879,-8.678 8.678,-8.678l17.356,0l0,17.356c0,4.799 -3.879,8.678 -8.678,8.678Z" style="fill:#ff8700;fill-rule:nonzero;"/><path d="M503.322,136.175c-4.799,0 -8.678,-3.879 -8.678,-8.678l0,-18.363c0,-4.799 3.879,-8.678 8.678,-8.678c4.799,0 8.678,3.879 8.678,8.678l0,18.363c0,4.799 -3.879,8.678 -8.678,8.678Zm0,-55.071c-4.799,0 -8.678,-3.879 -8.678,-8.678l0,-18.362c0,-4.799 3.879,-8.678 8.678,-8.678c4.799,0 8.678,3.879 8.678,8.678l0,18.354c0,4.799 -3.879,8.686 -8.678,8.686Z" style="fill:#ff8700;fill-rule:nonzero;"/><path d="M503.322,466.606c-4.799,0 -8.678,-3.879 -8.678,-8.678l0,-18.354c0,-4.799 3.879,-8.678 8.678,-8.678c4.799,0 8.678,3.879 8.678,8.678l0,18.354c0,4.79 -3.879,8.678 -8.678,8.678Zm0,-55.071c-4.799,0 -8.678,-3.879 -8.678,-8.678l0,-18.354c0,-4.799 3.879,-8.678 8.678,-8.678c4.799,0 8.678,3.879 8.678,8.678l0,18.354c0,4.799 -3.879,8.678 -8.678,8.678Zm0,-55.07c-4.799,0 -8.678,-3.879 -8.678,-8.678l0,-18.363c0,-4.799 3.879,-8.678 8.678,-8.678c4.799,0 8.678,3.879 8.678,8.678l0,18.363c0,4.799 -3.879,8.678 -8.678,8.678Zm0,-55.079c-4.799,0 -8.678,-3.879 -8.678,-8.678l0,-18.354c0,-4.799 3.879,-8.678 8.678,-8.678c4.799,0 8.678,3.879 8.678,8.678l0,18.354c0,4.799 -3.879,8.678 -8.678,8.678Zm0,-55.062c-4.799,0 -8.678,-3.879 -8.678,-8.678l0,-18.362c0,-4.799 3.879,-8.678 8.678,-8.678c4.799,0 8.678,3.879 8.678,8.678l0,18.362c0,4.799 -3.879,8.678 -8.678,8.678Zm0,-55.079c-4.799,0 -8.678,-3.879 -8.678,-8.678l0,-18.354c0,-4.799 3.879,-8.678 8.678,-8.678c4.799,0 8.678,3.879 8.678,8.678l0,18.354c0,4.799 -3.879,8.678 -8.678,8.678Z" style="fill:#ff8700;fill-rule:nonzero;"/></g><rect x="0" y="0" width="390.508" height="390.508" style="fill:#ff8700;"/><rect x="0" y="0" width="390.508" height="104.136" style="fill:#546a79;"/><circle cx="52.068" cy="52.068" r="26.034" style="fill:#ed7161;"/><circle cx="130.169" cy="52.068" r="26.034" style="fill:#f0c419;"/><circle cx="208.271" cy="52.068" r="26.034" style="fill:#4fba6f;"/></g></svg>